<svg xmlns="http://www.w3.org/2000/svg" version="1.1" xmlns:xlink="http://www.w3.org/1999/xlink" xmlns:svgjs="http://svgjs.dev/svgjs" width="2000" height="1500" viewBox="0 0 2000 1500"><rect width="2000" height="1500" fill="#ffffff"></rect><g transform="matrix(0.75,0,0,0.75,249.090909090909,282.7536437246963)"><svg viewBox="0 0 396 247" data-background-color="#ffffff" preserveAspectRatio="xMidYMid meet" height="1247" width="2000" xmlns="http://www.w3.org/2000/svg" xmlns:xlink="http://www.w3.org/1999/xlink"><g id="tight-bounds" transform="matrix(1,0,0,1,0.2400000000000091,-0.09999999999999432)"><svg viewBox="0 0 395.52 247.2" height="247.2" width="395.52"><g><svg></svg></g><g><svg viewBox="0 0 395.52 247.2" height="247.2" width="395.52"><mask id="1ab33ac9-9e5a-4a92-b3d2-b569d794f02a"><rect width="640" height="400" fill="white"></rect><g transform="matrix(1,0,0,1,42.6541176470588,91.5711847735831)"><svg viewBox="0 0 310.2117647058824 64.05763045283379" height="64.05763045283379" width="310.2117647058824"><g><svg viewBox="0 0 310.2117647058824 64.05763045283379" height="64.05763045283379" width="310.2117647058824"><g><svg viewBox="0 0 310.2117647058824 64.05763045283379" height="64.05763045283379" width="310.2117647058824"><g><svg viewBox="0 0 310.2117647058824 64.05763045283379" height="64.05763045283379" width="310.2117647058824"><g id="SvgjsG1002"><svg viewBox="0 0 310.2117647058824 64.05763045283379" height="64.05763045283379" width="310.2117647058824" id="SvgjsSvg1001"><g><svg viewBox="0 0 310.2117647058824 64.05763045283379" height="64.05763045283379" width="310.2117647058824"><g transform="matrix(1,0,0,1,0,0)"><svg width="310.2117647058824" viewBox="-2.3 -40.055802948608 211.18 44.405802948608" height="64.05763045283379" data-palette-color="#050000"><path d="M5.2-25L5.2-27.95Q5.2-30.7 6.1-32.6 7-34.5 8.97-35.38 10.95-36.25 14.25-36L14.25-36 14.25-32.65Q11.25-32.9 10.1-31.68 8.95-30.45 8.95-27.95L8.95-27.95 8.95-25 14.45-25 14.45-21.5 8.95-21.5 8.95 0 5.2 0 5.2-21.5 1.7-21.5 1.7-25 5.2-25ZM39.15 0L35.7 0 35.4-4.5Q34.35-2.2 32.3-0.93 30.25 0.35 27.1 0.35L27.1 0.35Q24.4 0.35 22.5-0.5 20.6-1.35 19.57-2.93 18.55-4.5 18.55-6.65L18.55-6.65Q18.55-9.8 20.9-11.83 23.25-13.85 27.7-14.3L27.7-14.3 35.4-15.15 35.4-17.15Q35.4-19.25 33.85-20.53 32.3-21.8 29.65-21.8L29.65-21.8Q27.05-21.8 25.32-20.6 23.6-19.4 22.95-17.15L22.95-17.15 19.55-18.35Q20.55-21.65 23.22-23.5 25.9-25.35 29.75-25.35L29.75-25.35Q34.2-25.35 36.67-23.08 39.15-20.8 39.15-16.9L39.15-16.9 39.15 0ZM35.4-11.15L35.4-11.95 27.65-11.05Q25.15-10.75 23.85-9.68 22.55-8.6 22.55-6.85L22.55-6.85Q22.55-5.1 23.82-4.05 25.1-3 27.5-3L27.5-3Q30.25-3 32-4.1 33.75-5.2 34.57-7.08 35.4-8.95 35.4-11.15L35.4-11.15ZM47.2 0L47.2-25 50.89-25 50.89 0 47.2 0ZM49.09-30L49.09-30Q47.95-30 47.2-30.75 46.45-31.5 46.45-32.6L46.45-32.6Q46.45-33.75 47.2-34.5 47.95-35.25 49.09-35.25L49.09-35.25Q50.14-35.25 50.92-34.5 51.7-33.75 51.7-32.6L51.7-32.6Q51.7-31.5 50.92-30.75 50.14-30 49.09-30ZM76.74-25L76.74-21.75 62.69-3.5 76.89-3.5 76.89 0 57.99 0 57.99-3.25 72.04-21.5 58.14-21.5 58.14-25 76.74-25ZM84.04 0L84.04-25 87.74-25 87.74 0 84.04 0ZM85.94-30L85.94-30Q84.79-30 84.04-30.75 83.29-31.5 83.29-32.6L83.29-32.6Q83.29-33.75 84.04-34.5 84.79-35.25 85.94-35.25L85.94-35.25Q86.99-35.25 87.77-34.5 88.54-33.75 88.54-32.6L88.54-32.6Q88.54-31.5 87.77-30.75 86.99-30 85.94-30ZM108.04-25L111.79-25 111.79-32 115.54-32 115.54-25 122.19-25 122.19-21.5 115.54-21.5 115.54-8.05Q115.54-5.75 116.51-4.7 117.49-3.65 119.01-3.45 120.54-3.25 122.19-3.45L122.19-3.45 122.19-0.2Q120.24 0.25 118.36 0.05 116.49-0.15 115.01-1.07 113.54-2 112.66-3.7 111.79-5.4 111.79-8.05L111.79-8.05 111.79-21.5 108.04-21.5 108.04-25ZM138.28 0.35L138.28 0.35Q134.78 0.35 132.06-1.35 129.33-3.05 127.78-6 126.23-8.95 126.23-12.75L126.23-12.75Q126.23-16.4 127.78-19.25 129.33-22.1 132.03-23.73 134.73-25.35 138.18-25.35L138.18-25.35Q141.58-25.35 144.26-23.85 146.93-22.35 148.43-19.7 149.93-17.05 149.83-13.65L149.83-13.65Q149.83-13.1 149.78-12.5 149.73-11.9 149.68-11.2L149.68-11.2 130.33-11.2Q130.43-8.85 131.48-7.05 132.53-5.25 134.26-4.23 135.98-3.2 138.18-3.2L138.18-3.2Q141.08-3.2 143.11-4.3 145.13-5.4 146.03-7.45L146.03-7.45 149.28-6.15Q147.78-3 144.93-1.33 142.08 0.35 138.28 0.35ZM130.38-14.45L145.73-14.45Q145.78-16.6 144.81-18.25 143.83-19.9 142.08-20.85 140.33-21.8 138.03-21.8L138.03-21.8Q136.03-21.8 134.38-20.85 132.73-19.9 131.66-18.23 130.58-16.55 130.38-14.45L130.38-14.45ZM166.63 0.35L166.63 0.35Q162.98 0.35 160.23-1.25 157.48-2.85 155.95-5.73 154.43-8.6 154.43-12.4L154.43-12.4Q154.43-16.25 155.95-19.18 157.48-22.1 160.23-23.73 162.98-25.35 166.63-25.35L166.63-25.35Q170.48-25.35 173.38-23.58 176.28-21.8 177.58-18.65L177.58-18.65 174.13-17.45Q173.38-19.45 171.41-20.63 169.43-21.8 166.83-21.8L166.83-21.8Q164.28-21.8 162.41-20.65 160.53-19.5 159.5-17.4 158.48-15.3 158.48-12.45L158.48-12.45Q158.48-8.25 160.73-5.73 162.98-3.2 166.73-3.2L166.73-3.2Q169.28-3.2 171.28-4.35 173.28-5.5 174.23-7.45L174.23-7.45 177.63-6.25Q176.28-3.15 173.38-1.4 170.48 0.35 166.63 0.35ZM183.78 0L183.78-36 187.53-36 187.53-21.6Q188.73-23.4 190.78-24.38 192.83-25.35 195.38-25.35L195.38-25.35Q198.13-25.35 200.28-24.1 202.43-22.85 203.65-20.4 204.88-17.95 204.88-14.3L204.88-14.3 204.88 0 200.88 0 200.88-13.85Q200.88-17.75 199.23-19.83 197.58-21.9 194.43-21.9L194.43-21.9Q191.18-21.9 189.35-19.7 187.53-17.5 187.53-13.3L187.53-13.3 187.53 0 183.78 0Z" opacity="1" transform="matrix(1,0,0,1,0,0)" fill="black" class="wordmark-text-0" id="SvgjsPath1000" stroke-width="7" stroke="black" stroke-linejoin="round"></path></svg></g></svg></g></svg></g></svg></g><g></g></svg></g></svg></g></svg></g></mask><g transform="matrix(1,0,0,1,42.6541176470588,91.5711847735831)"><svg viewBox="0 0 310.2117647058824 64.05763045283379" height="64.05763045283379" width="310.2117647058824"><g><svg viewBox="0 0 310.2117647058824 64.05763045283379" height="64.05763045283379" width="310.2117647058824"><g><svg viewBox="0 0 310.2117647058824 64.05763045283379" height="64.05763045283379" width="310.2117647058824"><g><svg viewBox="0 0 310.2117647058824 64.05763045283379" height="64.05763045283379" width="310.2117647058824"><g id="textblocktransform"><svg viewBox="0 0 310.2117647058824 64.05763045283379" height="64.05763045283379" width="310.2117647058824" id="textblock"><g><svg viewBox="0 0 310.2117647058824 64.05763045283379" height="64.05763045283379" width="310.2117647058824"><g transform="matrix(1,0,0,1,0,0)"><svg width="310.2117647058824" viewBox="-2.3 -40.055802948608 211.18 44.405802948608" height="64.05763045283379" data-palette-color="#050000"><path d="M5.2-25L5.2-27.95Q5.2-30.7 6.1-32.6 7-34.5 8.97-35.38 10.95-36.25 14.25-36L14.25-36 14.25-32.65Q11.25-32.9 10.1-31.68 8.95-30.45 8.95-27.95L8.95-27.95 8.95-25 14.45-25 14.45-21.5 8.95-21.5 8.95 0 5.2 0 5.2-21.5 1.7-21.5 1.7-25 5.2-25ZM39.15 0L35.7 0 35.4-4.5Q34.35-2.2 32.3-0.93 30.25 0.35 27.1 0.35L27.1 0.35Q24.4 0.35 22.5-0.5 20.6-1.35 19.57-2.93 18.55-4.5 18.55-6.65L18.55-6.65Q18.55-9.8 20.9-11.83 23.25-13.85 27.7-14.3L27.7-14.3 35.4-15.15 35.4-17.15Q35.4-19.25 33.85-20.53 32.3-21.8 29.65-21.8L29.65-21.8Q27.05-21.8 25.32-20.6 23.6-19.4 22.95-17.15L22.95-17.15 19.55-18.35Q20.55-21.65 23.22-23.5 25.9-25.35 29.75-25.35L29.75-25.35Q34.2-25.35 36.67-23.08 39.15-20.8 39.15-16.9L39.15-16.9 39.15 0ZM35.4-11.15L35.4-11.95 27.65-11.05Q25.15-10.75 23.85-9.68 22.55-8.6 22.55-6.85L22.55-6.85Q22.55-5.1 23.82-4.05 25.1-3 27.5-3L27.5-3Q30.25-3 32-4.1 33.75-5.2 34.57-7.08 35.4-8.95 35.4-11.15L35.4-11.15ZM47.2 0L47.2-25 50.89-25 50.89 0 47.2 0ZM49.09-30L49.09-30Q47.95-30 47.2-30.75 46.45-31.5 46.45-32.6L46.45-32.6Q46.45-33.75 47.2-34.5 47.95-35.25 49.09-35.25L49.09-35.25Q50.14-35.25 50.92-34.5 51.7-33.75 51.7-32.6L51.7-32.6Q51.7-31.5 50.92-30.75 50.14-30 49.09-30ZM76.74-25L76.74-21.75 62.69-3.5 76.89-3.5 76.89 0 57.99 0 57.99-3.25 72.04-21.5 58.14-21.5 58.14-25 76.74-25ZM84.04 0L84.04-25 87.74-25 87.74 0 84.04 0ZM85.94-30L85.94-30Q84.79-30 84.04-30.75 83.29-31.5 83.29-32.6L83.29-32.6Q83.29-33.75 84.04-34.5 84.79-35.25 85.94-35.25L85.94-35.25Q86.99-35.25 87.77-34.5 88.54-33.75 88.54-32.6L88.54-32.6Q88.54-31.5 87.77-30.75 86.99-30 85.94-30ZM108.04-25L111.79-25 111.79-32 115.54-32 115.54-25 122.19-25 122.19-21.5 115.54-21.5 115.54-8.05Q115.54-5.75 116.51-4.7 117.49-3.65 119.01-3.45 120.54-3.25 122.19-3.45L122.19-3.45 122.19-0.2Q120.24 0.25 118.36 0.05 116.49-0.15 115.01-1.07 113.54-2 112.66-3.7 111.79-5.4 111.79-8.05L111.79-8.05 111.79-21.5 108.04-21.5 108.04-25ZM138.28 0.35L138.28 0.35Q134.78 0.35 132.06-1.35 129.33-3.05 127.78-6 126.23-8.95 126.23-12.75L126.23-12.75Q126.23-16.4 127.78-19.25 129.33-22.1 132.03-23.73 134.73-25.35 138.18-25.35L138.18-25.35Q141.58-25.35 144.26-23.85 146.93-22.35 148.43-19.7 149.93-17.05 149.83-13.65L149.83-13.65Q149.83-13.1 149.78-12.5 149.73-11.9 149.68-11.2L149.68-11.2 130.33-11.2Q130.43-8.85 131.48-7.05 132.53-5.25 134.26-4.23 135.98-3.2 138.18-3.2L138.18-3.2Q141.08-3.2 143.11-4.3 145.13-5.4 146.03-7.45L146.03-7.45 149.28-6.15Q147.78-3 144.93-1.33 142.08 0.35 138.28 0.35ZM130.38-14.45L145.73-14.45Q145.78-16.6 144.81-18.25 143.83-19.9 142.08-20.85 140.33-21.8 138.03-21.8L138.03-21.8Q136.03-21.8 134.38-20.85 132.73-19.9 131.66-18.23 130.58-16.55 130.38-14.45L130.38-14.45ZM166.63 0.35L166.63 0.35Q162.98 0.35 160.23-1.25 157.48-2.85 155.95-5.73 154.43-8.6 154.43-12.4L154.43-12.4Q154.43-16.25 155.95-19.18 157.48-22.1 160.23-23.73 162.98-25.35 166.63-25.35L166.63-25.35Q170.48-25.35 173.38-23.58 176.28-21.8 177.58-18.65L177.58-18.65 174.13-17.45Q173.38-19.45 171.41-20.63 169.43-21.8 166.83-21.8L166.83-21.8Q164.28-21.8 162.41-20.65 160.53-19.5 159.5-17.4 158.48-15.3 158.48-12.45L158.48-12.45Q158.48-8.25 160.73-5.73 162.98-3.2 166.73-3.2L166.73-3.2Q169.28-3.2 171.28-4.35 173.28-5.5 174.23-7.45L174.23-7.45 177.63-6.25Q176.28-3.15 173.38-1.4 170.48 0.35 166.63 0.35ZM183.78 0L183.78-36 187.53-36 187.53-21.6Q188.73-23.4 190.78-24.38 192.83-25.35 195.38-25.35L195.38-25.35Q198.13-25.35 200.28-24.1 202.43-22.85 203.65-20.4 204.88-17.95 204.88-14.3L204.88-14.3 204.88 0 200.88 0 200.88-13.85Q200.88-17.75 199.23-19.83 197.58-21.9 194.43-21.9L194.43-21.9Q191.18-21.9 189.35-19.7 187.53-17.5 187.53-13.3L187.53-13.3 187.53 0 183.78 0Z" opacity="1" transform="matrix(1,0,0,1,0,0)" fill="#050000" class="wordmark-text-0" data-fill-palette-color="primary" id="text-0"></path></svg></g></svg></g></svg></g></svg></g><g></g></svg></g></svg></g></svg></g><g mask="url(#1ab33ac9-9e5a-4a92-b3d2-b569d794f02a)"><g transform="matrix(0.6015694474594278, 0, 0, 0.6015694474594278, 59.323788816375156, 1)"><svg xmlns="http://www.w3.org/2000/svg" xmlns:xlink="http://www.w3.org/1999/xlink" version="1.1" x="0" y="0" viewBox="25.899860075925623 52.199999999999996 460.2501399240743 407.6004874176015" style="enable-background:new 0 0 512 512;" xml:space="preserve" height="407.6004874176015" width="460.2501399240743" class="icon-none" data-fill-palette-color="accent" id="none"><g fill="#ffd500" data-fill-palette-color="accent"><path d="M376.8 262c2.9 16.3 17.1 28.2 33.7 28.2 18.9 0 34.3-15.3 34.3-34.2 0-18.9-15.3-34.3-34.2-34.3-16.6 0-30.8 11.9-33.7 28.2H135.4c-2.9-16.3-17.1-28.2-33.7-28.2-18.9 0-34.2 15.3-34.2 34.2 0 18.9 15.3 34.2 34.2 34.2 9.1 0 17.8-3.6 24.2-10h0c5-4.9 8.3-11.3 9.5-18.2H376.8z" fill="#ffd500" data-fill-palette-color="accent"></path><path d="M476.1 325.7c-13.4-13.4-35.1-13.4-48.5 0 0 0 0 0 0 0h0c-5 5-8.3 11.4-9.5 18.3h-56.2c-12.6-0.1-22.8-10.4-22.8-23 0-19.2-15.5-34.9-34.8-35h-96.6c-19.2 0.1-34.8 15.8-34.8 35 0 12.6-10.2 22.9-22.8 23H94c-1.2-6.9-4.5-13.3-9.5-18.3-13.4-13.3-35-13.2-48.3 0.1-13.3 13.4-13.2 35 0.1 48.3 13.3 13.2 34.8 13.2 48.1 0 5-4.9 8.3-11.2 9.5-18.1h56.2c19.2-0.1 34.8-15.8 34.8-35 0-12.6 10.2-22.9 22.8-23h96.6c12.6 0.1 22.8 10.4 22.8 23 0 19.2 15.5 34.9 34.8 35h56.2c1.2 6.9 4.5 13.2 9.5 18.1 13.4 13.4 35.1 13.4 48.5 0C489.4 360.8 489.5 339.1 476.1 325.7z" fill="#ffd500" data-fill-palette-color="accent"></path><path d="M391.6 391.3c-9.1 0-17.9 3.6-24.3 10.1-5.8 5.8-9.3 13.5-9.9 21.6h-8.1c-12.7-0.1-23.9-8-28.3-19.9l-18.7-50.5c-6.2-16.5-21.9-27.5-39.6-27.6h-13c-17.6 0-33.4 11-39.6 27.5l-18.7 50.6c-4.4 11.9-15.7 19.8-28.3 19.9h-8.1c-1.5-18.7-17.9-32.6-36.6-31.1-18.7 1.5-32.6 17.9-31.1 36.6s17.9 32.6 36.6 31.1c8-0.6 15.5-4.1 21.2-9.8 4.1-4.2 7.1-9.3 8.7-14.8h9.2c17.7-0.1 33.4-11.1 39.6-27.7l18.7-50.5c4.4-11.8 15.7-19.7 28.3-19.7h13c12.6 0 23.9 7.8 28.3 19.7l18.7 50.6c6.2 16.6 21.9 27.6 39.6 27.7h9.2c1.8 5.5 4.7 10.6 8.6 14.8v-0.1c7 6.5 15.1 10 24.3 10 18.9 0.1 34.3-15.2 34.3-34.1C425.7 406.7 410.5 391.4 391.6 391.3z" fill="#ffd500" data-fill-palette-color="accent"></path><path d="M84.4 186.4c0 0 0.1-0.1 0.1-0.1 5-5 8.3-11.4 9.5-18.3h56.2c12.6 0.1 22.8 10.4 22.8 23 0 19.2 15.5 34.9 34.8 35h96.6c19.2-0.1 34.8-15.8 34.8-35 0-12.6 10.2-22.9 22.8-23h56.2c1.2 6.9 4.5 13.3 9.5 18.3 13.4 13.4 35.1 13.4 48.4 0 13.4-13.4 13.4-35.1 0-48.4-13.4-13.4-35-13.4-48.4 0l0 0c-5 4.9-8.3 11.2-9.5 18.1h-56.2c-19.2 0.1-34.8 15.8-34.8 35 0 12.6-10.2 22.9-22.8 23h-96.6c-12.6-0.1-22.8-10.4-22.8-23 0-19.2-15.5-34.9-34.8-35H94c-1.2-6.9-4.5-13.2-9.5-18.1-13.4-13.4-35.1-13.5-48.5-0.1-13.4 13.4-13.5 35.1-0.1 48.5C49.3 199.7 71 199.8 84.4 186.4z" fill="#ffd500" data-fill-palette-color="accent"></path><path d="M144.9 110.6c5.8-5.8 9.3-13.4 9.9-21.6h8.1c12.7 0.1 23.9 8 28.3 19.9l18.7 50.5c6.2 16.5 21.9 27.5 39.6 27.6h13c17.6 0 33.4-11 39.6-27.5l18.7-50.6c4.4-11.9 15.7-19.8 28.3-19.9h8.1c1.5 18.7 17.9 32.6 36.6 31.1s32.6-17.9 31.1-36.6-17.9-32.6-36.6-31.1c-8 0.6-15.5 4.1-21.2 9.8-4.1 4.2-7.1 9.3-8.7 14.8h-9.2c-17.7 0.1-33.4 11.1-39.6 27.7l-18.7 50.5c-4.4 11.8-15.7 19.7-28.3 19.7h-13c-12.6 0-23.9-7.8-28.3-19.7l-18.7-50.6c-6.2-16.6-21.9-27.6-39.6-27.7h-9.2c-1.8-5.5-4.7-10.6-8.6-14.8v0.1c-7-6.5-15.1-10-24.3-10-9.1 0-17.9 3.6-24.3 10.1-13.3 13.4-13.3 35 0.1 48.4C110 124 131.6 124 144.9 110.6z" fill="#ffd500" data-fill-palette-color="accent"></path></g></svg></g></g></svg></g><defs></defs></svg><rect width="395.52" height="247.2" fill="none" stroke="none" visibility="hidden"></rect></g></svg></g></svg>